<svg width="47" height="58" viewBox="0 0 47 58" fill="none" xmlns="http://www.w3.org/2000/svg">
<path d="M23.437 28.1405H37.1572L44.2539 48.0113H37.1572L44.2539 57.9466L23.437 38.0759H30.5337L23.437 28.1405Z" fill="white"/>
<path d="M39.2071 26.1236C39.4142 25.0933 39.5228 24.0275 39.5228 22.9362C39.5228 14.0523 32.3209 6.85039 23.437 6.85039C14.553 6.85039 7.35112 14.0523 7.35112 22.9362C7.35112 30.5923 12.6997 36.9991 19.8642 38.6239L26.9391 45.3773C25.7976 45.554 24.628 45.6457 23.437 45.6457C10.8949 45.6457 0.727539 35.4783 0.727539 22.9362C0.727539 10.3942 10.8949 0.226807 23.437 0.226807C35.979 0.226807 46.1464 10.3942 46.1464 22.9362C46.1464 27.4982 44.8013 31.7459 42.486 35.3045L39.2071 26.1236Z" fill="white"/>
</svg>
